<?xml version="1.0" encoding="UTF-8"?>
<svg width="14px" height="14px" viewBox="0 0 14 14" version="1.1" xmlns="http://www.w3.org/2000/svg" xmlns:xlink="http://www.w3.org/1999/xlink">
    <!-- Generator: Sketch 54.1 (76490) - https://sketchapp.com -->
    <title>form_ic_at</title>
    <desc>Created with Sketch.</desc>
    <g id="首页" stroke="none" stroke-width="1" fill="none" fill-rule="evenodd">
        <g id="切图" transform="translate(-33.000000, -563.000000)" fill="#F7B500">
            <g id="消息提示Message-浮出主动消失型消息提醒-黄色icon" transform="translate(17.000000, 550.000000)">
                <g id="Warning" transform="translate(16.000000, 13.000000)">
                    <path d="M7,14 C3.13359375,14 0,10.8664062 0,7 C0,3.13359375 3.13359375,0 7,0 C10.8664062,0 14,3.13359375 14,7 C14,10.8664062 10.8664062,14 7,14 L7,14 Z M7.4375,3.0625 C7.4375,2.82050781 7.24199219,2.625 7,2.625 L7,2.625 C6.75800781,2.625 6.5625,2.82050781 6.5625,3.0625 L6.5625,3.0625 C6.5625,3.30449219 6.75800781,3.5 7,3.5 L7,3.5 C7.24199219,3.5 7.4375,3.30449219 7.4375,3.0625 L7.4375,3.0625 L7.4375,3.0625 Z M7.4375,4.8125 C7.4375,4.57050781 7.24199219,4.375 7,4.375 L7,4.375 C6.75800781,4.375 6.5625,4.57050781 6.5625,4.8125 L6.5625,10.9375 C6.5625,11.1794922 6.75800781,11.375 7,11.375 L7,11.375 C7.24199219,11.375 7.4375,11.1794922 7.4375,10.9375 L7.4375,4.8125 L7.4375,4.8125 Z" id="form_ic_at" transform="translate(7.000000, 7.000000) scale(1, -1) translate(-7.000000, -7.000000) "></path>
                </g>
            </g>
        </g>
    </g>
</svg>